<svg xmlns="http://www.w3.org/2000/svg" xmlns:xlink="http://www.w3.org/1999/xlink" width="1240" height="733.01"><rect width="1240" height="733.01" rx="5" ry="5" class="a"/><svg y="0%" x="0%"><circle cx="20" cy="20" r="6" fill="#ff5f58"/><circle cx="40" cy="20" r="6" fill="#ffbd2e"/><circle cx="60" cy="20" r="6" fill="#18c132"/></svg><svg height="673.01" viewBox="0 0 120 67.301" width="1200" x="15" xmlns="http://www.w3.org/2000/svg" xmlns:xlink="http://www.w3.org/1999/xlink" y="50"><style>@keyframes m{0%{transform:translateX(0)}19.2%{transform:translateX(-120px)}20.2%{transform:translateX(-480px)}38.5%{transform:translateX(-600px)}41.4%{transform:translateX(-720px)}42.3%{transform:translateX(-840px)}43.9%{transform:translateX(-960px)}53.8%{transform:translateX(-1320px)}54.8%{transform:translateX(-1440px)}54.9%{transform:translateX(-1680px)}55.6%{transform:translateX(-2040px)}to{transform:translateX(-2160px)}}.a{fill:#282d35}.f{fill:#b9c0cb;white-space:pre}.g{fill:#71bef2}.h,.i,.j,.p{white-space:pre}.i,.j,.p{fill:#71bef2}.j,.p{fill:#a8cc8c}.p{fill:#6f7783}</style><g font-family="Monaco,Consolas,Menlo,'Bitstream Vera Sans Mono','Powerline Symbols',monospace" font-size="1.67"><defs><symbol id="1">0<text y="1.67" class="f">✝</text><path class="g" d="M3.006 0h4v2.171h-4z"/><text x="3.006" y="1.67" class="h"> ~</text><text x="7.014" y="1.67" class="i"></text></symbol><symbol id="2">0<text y="1.67" class="f">✝</text><path class="g" d="M3.006 0h4v2.171h-4z"/><text x="3.006" y="1.67" class="h"> ~</text><text x="7.014" y="1.67" class="i"></text><text x="9.018" y="1.67" class="j">cuid</text></symbol><symbol id="3"><text y="1.67" class="f">ckrajrds10000u5os3tc0bhe0</text></symbol><symbol id="a"><path fill="transparent" d="M0 0h120v31H0z"/></symbol><symbol id="b"><path fill="#6f7683" d="M0 0h1.102v2.171H0z"/></symbol></defs><path class="a" d="M0 0h120v67.301H0z"/><g style="animation-duration:5.305309s;animation-iteration-count:infinite;animation-name:m;animation-timing-function:steps(1,end)"><svg width="2280"><svg><use xlink:href="#a"/><use xlink:href="#b" x="-.004"/></svg><svg x="120"><use xlink:href="#a"/><use xlink:href="#b" x="-.004"/></svg><svg x="240"><use xlink:href="#a"/><use xlink:href="#b" x="8.996"/><use xlink:href="#1"/></svg><svg x="360"><use xlink:href="#a"/><use xlink:href="#b" x="8.996"/><use xlink:href="#1"/></svg><svg x="480"><use xlink:href="#a"/><use xlink:href="#b" x="8.996"/><use xlink:href="#1"/></svg><svg x="600"><use xlink:href="#a"/><use xlink:href="#b" x="9.996"/>0<text y="1.67" class="f">✝</text><path class="g" d="M3.006 0h4v2.171h-4z"/><text x="3.006" y="1.67" class="h"> ~</text><text x="7.014" y="1.67" class="i"></text><text x="9.018" y="1.67" style="white-space:pre" fill="#b9c0cb" text-decoration="underline">c</text><text x="10.02" y="1.67" class="p">uid</text></svg><svg x="720"><use xlink:href="#a"/><use xlink:href="#b" x="10.996"/>0<text y="1.67" class="f">✝</text><path class="g" d="M3.006 0h4v2.171h-4z"/><text x="3.006" y="1.67" class="h"> ~</text><text x="7.014" y="1.67" class="i"></text><text x="9.018" y="1.67" class="j">cu</text><text x="11.022" y="1.67" class="p">id</text></svg><svg x="840"><use xlink:href="#a"/><use xlink:href="#b" x="11.996"/>0<text y="1.67" class="f">✝</text><path class="g" d="M3.006 0h4v2.171h-4z"/><text x="3.006" y="1.67" class="h"> ~</text><text x="7.014" y="1.67" class="i"></text><text x="9.018" y="1.67" style="white-space:pre" fill="#e88388" font-weight="700">cui</text><text x="12.024" y="1.67" class="p">d</text></svg><svg x="960"><use xlink:href="#a"/><use xlink:href="#b" x="12.996"/><use xlink:href="#2"/></svg><svg x="1080"><use xlink:href="#a"/><use xlink:href="#b" x="12.996"/><use xlink:href="#2"/></svg><svg x="1200"><use xlink:href="#a"/><use xlink:href="#b" x="-.004" y="2.146"/><use xlink:href="#2"/></svg><svg x="1320"><use xlink:href="#a"/><use xlink:href="#b" x="-.004" y="2.146"/><use xlink:href="#2"/></svg><svg x="1440"><use xlink:href="#a"/><use xlink:href="#b" x="-.004" y="4.317"/><use xlink:href="#2"/><use xlink:href="#3" y="2.171"/></svg><svg x="1560"><use xlink:href="#a"/><use xlink:href="#b" x="-.004" y="4.317"/><use xlink:href="#2"/><use xlink:href="#3" y="2.171"/></svg><svg x="1680"><use xlink:href="#a"/><use xlink:href="#b" x="-.004" y="4.317"/><use xlink:href="#2"/><use xlink:href="#3" y="2.171"/></svg><svg x="1800"><use xlink:href="#a"/><use xlink:href="#b" x="8.996" y="4.317"/><use xlink:href="#2"/><use xlink:href="#3" y="2.171"/><use xlink:href="#1" y="4.342"/></svg><svg x="1920"><use xlink:href="#a"/><use xlink:href="#b" x="8.996" y="4.317"/><use xlink:href="#2"/><use xlink:href="#3" y="2.171"/><use xlink:href="#1" y="4.342"/></svg><svg x="2040"><use xlink:href="#a"/><use xlink:href="#b" x="8.996" y="4.317"/><use xlink:href="#2"/><use xlink:href="#3" y="2.171"/><use xlink:href="#1" y="4.342"/></svg><svg x="2160"><use xlink:href="#a"/><use xlink:href="#b" x="-.004" y="6.488"/><use xlink:href="#2"/><use xlink:href="#3" y="2.171"/><use xlink:href="#1" y="4.342"/></svg></svg></g></g></svg></svg>